<svg width="135" height="34" fill="none" xmlns="http://www.w3.org/2000/svg"><path d="M134.5 17c0 2.063-1.672 4.17-5.06 6.188-3.356 1.998-8.246 3.815-14.332 5.348C102.943 31.6 86.111 33.5 67.5 33.5c-18.61 0-35.443-1.9-47.608-4.964-6.086-1.533-10.976-3.35-14.332-5.348C2.172 21.17.5 19.063.5 17c0-2.063 1.672-4.17 5.06-6.188 3.356-1.998 8.246-3.815 14.332-5.348C32.057 2.4 48.89.5 67.5.5c18.61 0 35.443 1.9 47.608 4.964 6.086 1.533 10.976 3.35 14.332 5.348 3.388 2.018 5.06 4.125 5.06 6.188z" stroke="#83C1FA"/></svg>