<svg width="85" height="85" xmlns="http://www.w3.org/2000/svg"><path d="M26.698 49.728v-2.97h-.954V35.4h-5.058l-.486 9.522c-.036.774-.126 1.35-.558 1.836h-.81v2.97h1.35V48h5.148v1.728h1.368zm-4.716-13.05h2.34v10.08h-3.33c.396-.414.522-.954.576-1.854l.414-8.226zm10.553 8.784L33.021 48h1.404l-2.412-12.6h-2.034L27.567 48h1.296l.486-2.538h3.186zm-1.62-8.478l1.422 7.272h-2.808l1.386-7.272zm9.7-.306V48h1.404V35.4h-5.13l-.342 9.54c-.036 1.206-.234 1.8-1.404 1.8v1.278h.234c1.926-.018 2.466-1.152 2.538-3.15l.288-8.19h2.412zm4.308 3.69V35.4h-1.404V48h2.754c1.962 0 2.826-1.17 2.826-3.078V43.41c0-1.998-.936-3.042-2.934-3.042h-1.242zm0 6.354v-5.094h1.242c1.044 0 1.548.468 1.548 1.692v1.674c0 1.152-.414 1.728-1.44 1.728h-1.35zM50.374 35.4V48h9.018V35.4h-1.386v11.322h-2.412V35.4H54.19v11.322h-2.412V35.4h-1.404zm11.863 5.58v-4.302h3.78V35.4h-5.184V48h5.184v-1.278h-3.78V42.24h3.078v-1.26h-3.078z"/><circle cx="42.5" cy="42.5" r="42" stroke="#fff"/></svg>