<svg width="85" height="85" xmlns="http://www.w3.org/2000/svg"><circle cx="42.5" cy="42.5" r="42" stroke="#fff"/><path d="M28.569 42.33V48h1.404V35.4h-1.404v5.67h-3.096V35.4h-1.404V48h1.404v-5.67h3.096zm7.455 3.132L36.51 48h1.404l-2.412-12.6h-2.034L31.056 48h1.296l.486-2.538h3.186zm-1.62-8.478l1.422 7.272h-2.808l1.386-7.272zm7.36-1.71c-1.926 0-2.808 1.224-2.808 3.15v.792h1.296v-.846c0-1.134.468-1.818 1.476-1.818 1.026 0 1.476.648 1.476 1.944v.576c0 1.098-.612 1.728-1.548 1.728h-.666v1.26h.594c1.062 0 1.62.648 1.62 1.872v.99c0 1.26-.45 1.926-1.476 1.926-1.008 0-1.476-.684-1.476-1.818v-1.296h-1.314v1.224c0 1.908.9 3.168 2.826 3.168 1.944 0 2.844-1.26 2.844-3.168v-.99c0-1.26-.486-2.232-1.548-2.592 1.026-.378 1.548-1.314 1.548-2.61v-.324c0-1.908-.9-3.168-2.844-3.168zm8.815 10.188L51.065 48h1.404l-2.412-12.6h-2.034L45.611 48h1.296l.486-2.538h3.186zm-1.62-8.478l1.422 7.272h-2.808l1.386-7.272zm12.184 12.744v-2.97h-.954V35.4H55.13l-.486 9.522c-.036.774-.126 1.35-.558 1.836h-.81v2.97h1.35V48h5.148v1.728h1.368zm-4.716-13.05h2.34v10.08h-3.33c.396-.414.522-.954.576-1.854l.414-8.226z"/></svg>