<svg xmlns="http://www.w3.org/2000/svg" xmlns:xlink="http://www.w3.org/1999/xlink"><defs><clipPath id="clip0"><path fill="#fff" transform="translate(4 2)" d="M0 0h22v22H0z"/></clipPath><clipPath id="clip0"><path fill="#fff" transform="translate(4 2)" d="M0 0h22v22H0z"/></clipPath><clipPath id="clip0"><path fill="#fff" d="M0 0h24v24H0z"/></clipPath><clipPath id="clip0"><path fill="#fff" d="M0 0h86v86H0z"/></clipPath></defs><symbol id="arrow-down-dark"><circle cx="15" cy="15" r="15" fill="#3C3C3C"/><g clip-path="url(#clip0)"><path d="M15 17.538L19.538 13l1.296 1.296L15 20.13l-5.834-5.834L10.462 13 15 17.538z"/></g></symbol><symbol id="arrow-down-light"><circle cx="15" cy="15" r="15" fill="#E0E0E0"/><g clip-path="url(#clip0)"><path d="M15 17.538L19.538 13l1.296 1.296L15 20.13l-5.834-5.834L10.462 13 15 17.538z"/></g></symbol><symbol id="arrow-right-hover"><path d="M28.975 19.708l-9.61-9.61 2.533-2.534L35.833 21.5 21.898 35.436l-2.534-2.534 9.61-9.61H7.168v-3.584h21.808z" fill="#83C1FA"/></symbol><symbol id="arrow-right"><path d="M28.975 19.708l-9.61-9.61 2.533-2.534L35.833 21.5 21.898 35.436l-2.534-2.534 9.61-9.61H7.168v-3.584h21.808z"/></symbol><symbol id="arrow-up"><circle cx="15" cy="15" r="15" fill="#3B3B3B"/><path d="M15 13.926l-4.537 4.537-1.297-1.296L15 11.333l5.834 5.834-1.296 1.296L15 13.926z"/></symbol><symbol id="burger"><circle cx="23" cy="23" r="22.5" stroke="#262626"/><path fill="#fff" d="M10 16h26v1H10zm0 7h19v1H10zm0 7h23v1H10z"/></symbol><symbol id="close"><g clip-path="url(#clip0)" fill="#fff"><path d="M23.716.284a.97.97 0 00-1.37 0L.283 22.345a.97.97 0 101.371 1.371l22.061-22.06a.97.97 0 000-1.372z"/><path d="M23.716 22.345L1.655.285a.97.97 0 10-1.371 1.37l22.06 22.061a.966.966 0 001.372 0 .97.97 0 000-1.37z"/></g></symbol><symbol id="day" viewBox="0 0 24 24"><path d="M12 18a6 6 0 110-12 6 6 0 010 12zM11 1h2v3h-2V1zm0 19h2v3h-2v-3zM3.515 4.929l1.414-1.414L7.05 5.636 5.636 7.05 3.515 4.93v-.001zM16.95 18.364l1.414-1.414 2.121 2.121-1.414 1.414-2.121-2.121zm2.121-14.85l1.414 1.415-2.121 2.121-1.414-1.414 2.121-2.121v-.001zM5.636 16.95l1.414 1.414-2.121 2.121-1.414-1.414 2.121-2.121zM23 11v2h-3v-2h3zM4 11v2H1v-2h3z"/></symbol><symbol id="ellipse"><path d="M134.5 17c0 2.063-1.672 4.17-5.06 6.188-3.356 1.998-8.246 3.815-14.332 5.348C102.943 31.6 86.111 33.5 67.5 33.5c-18.61 0-35.443-1.9-47.608-4.964-6.086-1.533-10.976-3.35-14.332-5.348C2.172 21.17.5 19.063.5 17c0-2.063 1.672-4.17 5.06-6.188 3.356-1.998 8.246-3.815 14.332-5.348C32.057 2.4 48.89.5 67.5.5c18.61 0 35.443 1.9 47.608 4.964 6.086 1.533 10.976 3.35 14.332 5.348 3.388 2.018 5.06 4.125 5.06 6.188z" stroke="#83C1FA"/></symbol><symbol id="email"><g clip-path="url(#clip0)"><path d="M.75 10.75h64.5a3.583 3.583 0 013.583 3.583v57.334a3.583 3.583 0 01-3.583 3.583H.75a3.583 3.583 0 01-3.583-3.583V14.333A3.583 3.583 0 01.75 10.75zm32.465 31.114L10.24 22.353l-4.64 5.46 27.663 23.49 27.165-23.507-4.687-5.422-22.521 19.49h-.004z"/></g></symbol><symbol id="facebook"><path d="M25.167 41.375h8.958l3.583-14.333H25.167v-7.167c0-3.69 0-7.167 7.166-7.167h5.375V.668C36.54.514 32.13.167 27.471.167c-9.73 0-16.638 5.937-16.638 16.841v10.034H.083v14.333h10.75v30.458h14.334V41.375z"/></symbol><symbol id="link"><path d="M10 6v2H5v11h11v-5h2v6a1 1 0 01-1 1H4a1 1 0 01-1-1V7a1 1 0 011-1h6zm11-3v9l-3.794-3.793-5.999 6-1.414-1.414 5.999-6L12 3h9z"/></symbol><symbol id="next-arrow"><path d="M26.698 49.728v-2.97h-.954V35.4h-5.058l-.486 9.522c-.036.774-.126 1.35-.558 1.836h-.81v2.97h1.35V48h5.148v1.728h1.368zm-4.716-13.05h2.34v10.08h-3.33c.396-.414.522-.954.576-1.854l.414-8.226zm10.553 8.784L33.021 48h1.404l-2.412-12.6h-2.034L27.567 48h1.296l.486-2.538h3.186zm-1.62-8.478l1.422 7.272h-2.808l1.386-7.272zm9.7-.306V48h1.404V35.4h-5.13l-.342 9.54c-.036 1.206-.234 1.8-1.404 1.8v1.278h.234c1.926-.018 2.466-1.152 2.538-3.15l.288-8.19h2.412zm4.308 3.69V35.4h-1.404V48h2.754c1.962 0 2.826-1.17 2.826-3.078V43.41c0-1.998-.936-3.042-2.934-3.042h-1.242zm0 6.354v-5.094h1.242c1.044 0 1.548.468 1.548 1.692v1.674c0 1.152-.414 1.728-1.44 1.728h-1.35zM50.374 35.4V48h9.018V35.4h-1.386v11.322h-2.412V35.4H54.19v11.322h-2.412V35.4h-1.404zm11.863 5.58v-4.302h3.78V35.4h-5.184V48h5.184v-1.278h-3.78V42.24h3.078v-1.26h-3.078z"/><circle cx="42.5" cy="42.5" r="42" stroke="#fff"/></symbol><symbol id="night"><path d="M11.38 2.019a7.5 7.5 0 1010.6 10.6C21.662 17.854 17.316 22 12.001 22 6.477 22 2 17.523 2 12c0-5.315 4.146-9.661 9.38-9.981z"/></symbol><symbol id="play"><path d="M27 16L0 31.588V.413L27 16z"/></symbol><symbol id="prev-arrow"><circle cx="42.5" cy="42.5" r="42" stroke="#fff"/><path d="M28.569 42.33V48h1.404V35.4h-1.404v5.67h-3.096V35.4h-1.404V48h1.404v-5.67h3.096zm7.455 3.132L36.51 48h1.404l-2.412-12.6h-2.034L31.056 48h1.296l.486-2.538h3.186zm-1.62-8.478l1.422 7.272h-2.808l1.386-7.272zm7.36-1.71c-1.926 0-2.808 1.224-2.808 3.15v.792h1.296v-.846c0-1.134.468-1.818 1.476-1.818 1.026 0 1.476.648 1.476 1.944v.576c0 1.098-.612 1.728-1.548 1.728h-.666v1.26h.594c1.062 0 1.62.648 1.62 1.872v.99c0 1.26-.45 1.926-1.476 1.926-1.008 0-1.476-.684-1.476-1.818v-1.296h-1.314v1.224c0 1.908.9 3.168 2.826 3.168 1.944 0 2.844-1.26 2.844-3.168v-.99c0-1.26-.486-2.232-1.548-2.592 1.026-.378 1.548-1.314 1.548-2.61v-.324c0-1.908-.9-3.168-2.844-3.168zm8.815 10.188L51.065 48h1.404l-2.412-12.6h-2.034L45.611 48h1.296l.486-2.538h3.186zm-1.62-8.478l1.422 7.272h-2.808l1.386-7.272zm12.184 12.744v-2.97h-.954V35.4H55.13l-.486 9.522c-.036.774-.126 1.35-.558 1.836h-.81v2.97h1.35V48h5.148v1.728h1.368zm-4.716-13.05h2.34v10.08h-3.33c.396-.414.522-.954.576-1.854l.414-8.226z"/></symbol><symbol id="telegram"><path d="M19.443 36.345L2.638 31.122c-3.633-1.107-3.653-3.601.814-5.392L68.93.517c3.801-1.543 5.954.409 4.723 5.297L62.505 58.253c-.78 3.735-3.034 4.627-6.162 2.903l-17.162-12.66-7.999 7.698c-.82.791-1.486 1.469-2.751 1.636-1.258.175-2.294-.2-3.054-2.28l-5.853-19.252-.081.054v-.007z"/></symbol></svg>