<svg width="135" height="34" viewBox="0 0 135 34" fill="none" xmlns="http://www.w3.org/2000/svg">
<path d="M134.5 17C134.5 19.0631 132.828 21.1698 129.44 23.1876C126.084 25.186 121.194 27.0031 115.108 28.536C102.943 31.5997 86.1108 33.5 67.5 33.5C48.8892 33.5 32.0571 31.5997 19.8924 28.536C13.8062 27.0031 8.91647 25.186 5.56029 23.1876C2.17168 21.1698 0.5 19.0631 0.5 17C0.5 14.9369 2.17168 12.8302 5.56029 10.8124C8.91647 8.81402 13.8062 6.99686 19.8924 5.46404C32.0571 2.40034 48.8892 0.5 67.5 0.5C86.1108 0.5 102.943 2.40034 115.108 5.46404C121.194 6.99686 126.084 8.81402 129.44 10.8124C132.828 12.8302 134.5 14.9369 134.5 17Z" stroke="#83C1FA"/>
</svg>
