<svg width="85" height="85" viewBox="0 0 85 85" fill="none" xmlns="http://www.w3.org/2000/svg">
<path d="M26.6984 49.728V46.758H25.7444V35.4H20.6864L20.2004 44.922C20.1644 45.696 20.0744 46.272 19.6424 46.758H18.8324V49.728H20.1824V48H25.3304V49.728H26.6984ZM21.9824 36.678H24.3224V46.758H20.9924C21.3884 46.344 21.5144 45.804 21.5684 44.904L21.9824 36.678ZM32.535 45.462L33.021 48H34.425L32.013 35.4H29.979L27.567 48H28.863L29.349 45.462H32.535ZM30.915 36.984L32.337 44.256H29.529L30.915 36.984ZM40.6148 36.678V48H42.0188V35.4H36.8888L36.5468 44.94C36.5108 46.146 36.3128 46.74 35.1428 46.74V48.018H35.3768C37.3028 48 37.8428 46.866 37.9148 44.868L38.2028 36.678H40.6148ZM44.9228 40.368V35.4H43.5188V48H46.2728C48.2348 48 49.0988 46.83 49.0988 44.922V43.41C49.0988 41.412 48.1628 40.368 46.1648 40.368H44.9228ZM44.9228 46.722V41.628H46.1648C47.2088 41.628 47.7128 42.096 47.7128 43.32V44.994C47.7128 46.146 47.2988 46.722 46.2728 46.722H44.9228ZM50.3743 35.4V48H59.3923V35.4H58.0063V46.722H55.5943V35.4H54.1903V46.722H51.7783V35.4H50.3743ZM62.2373 40.98V36.678H66.0173V35.4H60.8333V48H66.0173V46.722H62.2373V42.24H65.3153V40.98H62.2373Z" fill="white"/>
<circle cx="42.5" cy="42.5" r="42" stroke="white"/>
</svg>
