<svg width="85" height="85" viewBox="0 0 85 85" fill="none" xmlns="http://www.w3.org/2000/svg">
<circle cx="42.5" cy="42.5" r="42" stroke="white"/>
<path d="M28.5686 42.33V48H29.9726V35.4H28.5686V41.07H25.4726V35.4H24.0686V48H25.4726V42.33H28.5686ZM36.0243 45.462L36.5103 48H37.9143L35.5023 35.4H33.4683L31.0563 48H32.3523L32.8383 45.462H36.0243ZM34.4043 36.984L35.8263 44.256H33.0183L34.4043 36.984ZM41.764 35.274C39.838 35.274 38.956 36.498 38.956 38.424V39.216H40.252V38.37C40.252 37.236 40.72 36.552 41.728 36.552C42.754 36.552 43.204 37.2 43.204 38.496V39.072C43.204 40.17 42.592 40.8 41.656 40.8H40.99V42.06H41.584C42.646 42.06 43.204 42.708 43.204 43.932V44.922C43.204 46.182 42.754 46.848 41.728 46.848C40.72 46.848 40.252 46.164 40.252 45.03V43.734H38.938V44.958C38.938 46.866 39.838 48.126 41.764 48.126C43.708 48.126 44.608 46.866 44.608 44.958V43.968C44.608 42.708 44.122 41.736 43.06 41.376C44.086 40.998 44.608 40.062 44.608 38.766V38.442C44.608 36.534 43.708 35.274 41.764 35.274ZM50.579 45.462L51.065 48H52.469L50.057 35.4H48.023L45.611 48H46.907L47.393 45.462H50.579ZM48.959 36.984L50.381 44.256H47.573L48.959 36.984ZM61.1427 49.728V46.758H60.1887V35.4H55.1307L54.6447 44.922C54.6087 45.696 54.5187 46.272 54.0867 46.758H53.2767V49.728H54.6267V48H59.7747V49.728H61.1427ZM56.4267 36.678H58.7667V46.758H55.4367C55.8327 46.344 55.9587 45.804 56.0127 44.904L56.4267 36.678Z" fill="white"/>
</svg>
